# xmcd
#
# Track frame offsets: 
#        150
#        43505
#        65330
#        90080
#        111980
#        138868
#        165643
#        185181
#        203838
#        227163
#        246776
#        275914
#
# Disc length: 3976 seconds
#
# Revision: 0
# Processed by: cddbd v1.5.2PL0 Copyright (c) Steve Scherf et al.
# Submitted via: ExactAudioCopyFreeDBPlugin 1.0
#
DISCID=a80f860c
DTITLE=มาลีฮวนน่า - ยรรโฟล์ค (Dsic 1)
DYEAR=2013
DGENRE=Country
TTITLE0=แด่...หนุ่มสาวผู้ร้าวราน
TTITLE1=ลัง
TTITLE2=จันทร์ฉาย
TTITLE3=มองอย่างนก
TTITLE4=มุดก้อนเมฆ
TTITLE5=จันทร์เจ้าเหอ
TTITLE6=แดดสุดท้าย
TTITLE7=มายา
TTITLE8=สาวน้อย
TTITLE9=บ้านฉัน
TTITLE10=แผลเมือง
TTITLE11=สายน้ำ-สายเลือด
EXTD=
EXTT0=
EXTT1=
EXTT2=
EXTT3=
EXTT4=
EXTT5=
EXTT6=
EXTT7=
EXTT8=
EXTT9=
EXTT10=
EXTT11=
PLAYORDER=
